<svg width="239" height="238" viewBox="0 0 239 238" fill="none" xmlns="http://www.w3.org/2000/svg">
<path fill-rule="evenodd" clip-rule="evenodd" d="M158.946 5.55593C157.958 5.06107 156.757 5.46044 156.262 6.44796L145.533 27.8585C132.656 24.1649 119.567 23.3127 106.975 24.9596L99.3229 1.89358C98.9751 0.845189 97.8433 0.277231 96.7949 0.625011L66.6041 10.6401C65.5557 10.9879 64.9877 12.1197 65.3355 13.1681L72.9656 36.1694C62.475 41.9838 53.0526 49.7749 45.3146 59.2458L24.3773 47.8385C23.4074 47.3101 22.1927 47.668 21.6642 48.6379L6.44607 76.5699C5.91761 77.5399 6.27551 78.7546 7.24546 79.283L28.2829 90.7448C24.2211 103.499 22.9847 116.512 24.2387 129.088L1.65596 135.728C0.596251 136.04 -0.0102115 137.152 0.301385 138.211L9.27449 168.728C9.58608 169.788 10.6977 170.394 11.7574 170.083L34.4079 163.423C40.8355 175.898 50.0036 186.979 61.4361 195.677L50.8204 216.861C50.3255 217.849 50.7249 219.051 51.7124 219.545L80.1502 233.796C81.1377 234.291 82.3395 233.891 82.8343 232.904L93.5006 211.619C106.388 215.246 119.479 216.034 132.064 214.325L139.438 236.552C139.786 237.601 140.918 238.169 141.966 237.821L172.157 227.806C173.205 227.458 173.773 226.326 173.425 225.278L166.018 202.948C176.209 197.234 185.379 189.648 192.958 180.465L213.916 191.883C214.886 192.412 216.101 192.054 216.629 191.084L231.848 163.152C232.376 162.182 232.018 160.967 231.048 160.439L210.145 149.05C214.294 136.238 215.585 123.156 214.358 110.51L237.553 103.69C238.613 103.379 239.219 102.267 238.908 101.207L229.935 70.6904C229.623 69.6307 228.511 69.0243 227.452 69.3359L204.28 76.1492C197.918 63.7208 188.841 52.6669 177.517 43.9605L188.276 22.4906C188.77 21.5031 188.371 20.3014 187.384 19.8065L158.946 5.55593ZM128.233 62.3815L128.233 62.3816C131.646 62.9186 135.059 63.7697 138.437 64.9517C146.893 67.911 154.229 72.6314 160.18 78.5577L160.18 78.5576C162.802 81.1692 165.155 84.0151 167.215 87.0476L167.215 87.0477C173.451 96.2235 177.011 107.108 177.263 118.386C177.286 119.395 177.282 120.407 177.251 121.421C177.159 124.461 176.824 127.521 176.236 130.575C175.737 133.163 175.056 135.747 174.185 138.311C174.126 138.482 174.068 138.653 174.008 138.824C170.815 147.948 165.572 155.768 158.976 161.95C157.343 163.48 155.627 164.91 153.839 166.235C144.102 173.447 132.22 177.53 119.902 177.662C113.351 177.732 106.677 176.684 100.135 174.395C72.8039 164.83 57.1647 136.865 62.2466 109.249C62.3138 108.884 62.3846 108.519 62.459 108.154C62.9801 105.6 63.6796 103.051 64.5647 100.522C65.5061 97.8323 66.6258 95.2554 67.9059 92.8004C70.8892 87.0789 74.7437 82.0194 79.2429 77.7309C81.0991 75.9615 83.0652 74.3235 85.125 72.8242C90.021 69.2609 95.4472 66.4822 101.19 64.5908C106.933 62.6995 112.993 61.6956 119.156 61.6818L119.156 61.6817C122.165 61.6749 125.199 61.9042 128.233 62.3815Z" fill="#F68F62"/>
</svg>