<svg width="242" height="242" fill="none" xmlns="http://www.w3.org/2000/svg"><path fill-rule="evenodd" clip-rule="evenodd" d="M120.509.017a2 2 0 0 0-2.239 1.728l-3.055 23.753a94.9 94.9 0 0 0-37.35 10L63.022 16.255a2 2 0 0 0-2.805-.363L35.03 35.318a2 2 0 0 0-.363 2.805l14.8 19.19a95.5 95.5 0 0 0-18.476 30.915L7.46 84.377a2 2 0 0 0-2.297 1.65L.027 117.42a2 2 0 0 0 1.65 2.296l23.643 3.87c.38 13.38 3.51 26.071 8.848 37.527L15.047 174.84a2 2 0 0 0-.459 2.791l18.55 25.839a2 2 0 0 0 2.791.459l19.18-13.768c10.187 9.652 22.5 17.082 36.165 21.515l-3.023 23.502a2 2 0 0 0 1.729 2.239l31.549 4.057a2 2 0 0 0 2.239-1.729l3.036-23.613a94.9 94.9 0 0 0 37.293-10.185l14.302 18.544a2 2 0 0 0 2.805.363l25.188-19.426a2 2 0 0 0 .363-2.805l-14.368-18.63a95.4 95.4 0 0 0 18.001-30.12l23.554 3.855a2 2 0 0 0 2.296-1.651l5.138-31.391a2 2 0 0 0-1.651-2.297l-23.492-3.844c-.316-13.464-3.419-26.238-8.754-37.768l19.64-14.1a2 2 0 0 0 .459-2.79l-18.55-25.84a2 2 0 0 0-2.791-.459l-19.62 14.085c-10.111-9.629-22.33-17.064-35.894-21.541l3.063-23.819a2 2 0 0 0-1.729-2.238zm25.278 68.496c-7.574-3.628-16.058-5.66-25.016-5.66h-.001a58.6 58.6 0 0 0-10.48.945 57.6 57.6 0 0 0-8.798 2.337c-11.625 4.098-21.552 11.797-28.44 21.758a58 58 0 0 0-3.932 6.575c-4.044 7.908-6.325 16.868-6.325 26.361 0 3.062.237 6.069.695 9.002a57.6 57.6 0 0 0 2.071 8.744 58 58 0 0 0 14.102 23.136 58 58 0 0 0 6.856 5.899 58 58 0 0 0 9.682 5.746c7.46 3.496 15.787 5.449 24.57 5.449 3.749 0 7.415-.356 10.966-1.036a57.6 57.6 0 0 0 18.529-7.017c17.049-10.095 28.48-28.674 28.48-49.923 0-15.859-6.367-30.231-16.685-40.698a58 58 0 0 0-6.829-5.929 58 58 0 0 0-9.445-5.689" fill="#BC244A"/></svg>