<svg width="100" height="100" viewBox="0 0 100 100" fill="none" xmlns="http://www.w3.org/2000/svg">
<path d="M0 20C0 8.9543 8.95431 0 20 0H80C91.0457 0 100 8.95431 100 20V80C100 91.0457 91.0457 100 80 100H20C8.9543 100 0 91.0457 0 80V20Z" fill="#151535"/>
<path d="M66.875 64.9996H30.125C28.5242 65.0157 26.9808 64.5133 25.8328 63.6024C24.6849 62.6915 24.0258 61.4464 24 60.1397V35.8603C24.0258 34.5536 24.6849 33.3085 25.8328 32.3976C26.9808 31.4868 28.5242 30.9843 30.125 31.0004H41.395C41.7569 31.0023 42.1137 31.0697 42.4399 31.1976C42.7661 31.3256 43.0535 31.5109 43.2815 31.7404L49.6515 38.1002H66.8015C67.6003 38.0843 68.3951 38.1977 69.1399 38.4338C69.8847 38.6699 70.5649 39.0241 71.1412 39.4759C71.7175 39.9277 72.1784 40.4682 72.4975 41.0663C72.8165 41.6643 72.9873 42.3079 73 42.9601V60.1397C72.9742 61.4464 72.3151 62.6915 71.1672 63.6024C70.0192 64.5133 68.4758 65.0157 66.875 64.9996Z" fill="#0A0815"/>
<path d="M69.1875 57.55C68.3375 53.2375 64.55 50 60 50C56.3875 50 53.25 52.05 51.6875 55.05C47.925 55.45 45 58.6375 45 62.5C45 66.6375 48.3625 70 52.5 70H68.75C72.2 70 75 67.2 75 63.75C75 60.45 72.4375 57.775 69.1875 57.55Z" fill="#DFD9F5"/>
</svg>
