<svg width="16" height="16" viewBox="0 0 16 16" fill="none" xmlns="http://www.w3.org/2000/svg">
<path fill-rule="evenodd" clip-rule="evenodd" d="M8 1.77701C6.80739 1.77732 5.63998 2.12036 4.63679 2.76529C3.6336 3.41022 2.83689 4.32987 2.34152 5.41474C1.84615 6.4996 1.673 7.70398 1.84267 8.88446C2.01234 10.0649 2.5177 11.1718 3.29856 12.0732C4.07943 12.9747 5.1029 13.6327 6.24713 13.969C7.39135 14.3052 8.60811 14.3056 9.75253 13.97C10.897 13.6344 11.9208 12.977 12.7022 12.076C13.4836 11.175 13.9896 10.0685 14.16 8.88811H8.88889C8.65314 8.88811 8.42705 8.79446 8.26035 8.62776C8.09365 8.46106 8 8.23497 8 7.99923C8 7.76348 8.09365 7.53739 8.26035 7.37069C8.42705 7.20399 8.65314 7.11034 8.88889 7.11034H15.1111C15.3469 7.11034 15.573 7.20399 15.7397 7.37069C15.9064 7.53739 16 7.76348 16 7.99923C16.0002 9.84913 15.3592 11.6419 14.1863 13.0724C13.0134 14.5029 11.3809 15.4827 9.56682 15.8451C7.75274 16.2074 5.86916 15.9298 4.23671 15.0596C2.60427 14.1894 1.32386 12.7803 0.613436 11.0722C-0.0969833 9.36418 -0.1935 7.4627 0.340317 5.69149C0.874133 3.92028 2.00529 2.38881 3.54123 1.35777C5.07717 0.326732 6.92296 -0.140144 8.76441 0.0366156C10.6058 0.213375 12.3291 1.02285 13.6409 2.32723C13.8033 2.49441 13.8936 2.71871 13.8923 2.95181C13.8909 3.18492 13.7981 3.40817 13.6337 3.57347C13.4694 3.73876 13.2466 3.83288 13.0135 3.83554C12.7805 3.8382 12.5556 3.74918 12.3876 3.58768C11.811 3.01249 11.1267 2.55653 10.3739 2.24585C9.62108 1.93518 8.81442 1.77586 8 1.77701Z" fill="#9A9AA1"/>
</svg>
