<svg width="140" height="137" fill="none" xmlns="http://www.w3.org/2000/svg"><path d="M34.134 90.912L7.278 115.126c-7.748 8.1-3.228 12.62 0 13.868 37.935.587 115.61 1.408 122.83 0 7.221-1.409 6.237-7.485 4.843-10.346l-20.912-34.34c-.807-2.568-4.534-6.648-12.987-2.421-10.566 5.283-11.447 3.742-12.988 2.421-1.232-1.057-11.813-9.759-16.509-13.648-5.723-5.283-9.832-3.962-12.987-1.54L34.134 90.911zM67.579 36.802c-7.573 10.038-3.742 16.29-1.541 17.17 4.579 4.578 6.457 4.329 7.484 4.622 1.541 0 5.107.793 12.327-6.604 7.22-7.396 6.604-11.886 1.761-16.069-3.522-3.889-12.46-9.157-20.031.88z" fill="#1B1B1B"/><path d="M68.68 27.997c-6.385 9.098-15.586 27.163-1.322 26.635 14.264-.528 19.298-7.117 20.032-10.346 3.742-8.805-12.988-17.817-20.032-4.786M1.5 116.5C17.57 95.368 48 62 55.912 68.06 62 71.5 68.656 78.057 77.484 88.323m0 0c5.95 6.918 12.151 15.034 17.61 23.542 1.394 2.861 2.422 8.056-4.622 5.943-9.172-3.661-24.61-14.683-12.988-29.485zm0 0C82.547 80.76 91 69.5 98.616 77.965L138.5 114.5" stroke="#838383" stroke-width="3" stroke-linecap="round"/><rect x="1.5" y="1.541" width="137" height="133.918" rx="16.5" stroke="#838383" stroke-width="3"/></svg>