<svg width="100" height="73" viewBox="0 0 100 73" fill="none" xmlns="http://www.w3.org/2000/svg">
<path d="M87.0878 68.0734H12.4411C9.18955 68.1055 6.05466 67.0996 3.72287 65.2759C1.39108 63.4521 0.0524158 60.9592 0 58.343V9.73113C0.0524158 7.11492 1.39108 4.62202 3.72287 2.79829C6.05466 0.974564 9.18955 -0.0313737 12.4411 0.000746217H35.3328C36.0678 0.00465753 36.7927 0.139547 37.4552 0.395719C38.1177 0.651892 38.7015 1.02298 39.1646 1.48233L52.1034 14.2159H86.9385C88.561 14.184 90.1753 14.411 91.6882 14.8838C93.2011 15.3565 94.5827 16.0657 95.7533 16.9703C96.9238 17.8749 97.8601 18.9571 98.5081 20.1545C99.1562 21.3518 99.5031 22.6405 99.5289 23.9463V58.343C99.4765 60.9592 98.1378 63.4521 95.806 65.2759C93.4742 67.0996 90.3393 68.1055 87.0878 68.0734Z" fill="url(#paint0_linear_489_140)"/>
<path d="M87.6791 48.5522C85.9495 40.0838 78.2426 33.7264 68.9842 33.7264C61.6335 33.7264 55.2492 37.752 52.0698 43.643C44.4139 44.4285 38.462 50.6877 38.462 58.2724C38.462 66.3971 45.3041 73 53.7231 73H86.7888C93.8089 73 99.5064 67.5017 99.5064 60.727C99.5064 54.2469 94.2922 48.994 87.6791 48.5522Z" fill="#FFF4EF"/>
<defs>
<linearGradient id="paint0_linear_489_140" x1="0" y1="0" x2="107.206" y2="74.6723" gradientUnits="userSpaceOnUse">
<stop stop-color="#BC244A"/>
<stop offset="1" stop-color="#F68F62"/>
</linearGradient>
</defs>
</svg>
