<svg width="75" height="59" viewBox="0 0 75 59" fill="none" xmlns="http://www.w3.org/2000/svg">
<path d="M65.625 51.9994H9.375C6.92478 52.024 4.56249 51.2556 2.80537 49.8625C1.04825 48.4694 0.039498 46.5651 0 44.5667V7.43335C0.039498 5.43489 1.04825 3.53064 2.80537 2.13754C4.56249 0.744443 6.92478 -0.0239655 9.375 0.000570015H26.625C27.1789 0.00355776 27.7251 0.106596 28.2244 0.302279C28.7236 0.497962 29.1635 0.78143 29.5125 1.13231L39.2625 10.8592H65.5125C66.7351 10.8348 67.9516 11.0082 69.0917 11.3693C70.2317 11.7304 71.2728 12.2721 72.1549 12.9632C73.037 13.6542 73.7425 14.4808 74.2308 15.3955C74.7191 16.3101 74.9806 17.2945 75 18.2919V44.5667C74.9605 46.5651 73.9518 48.4694 72.1946 49.8625C70.4375 51.2556 68.0752 52.024 65.625 51.9994Z" fill="url(#paint0_linear_213_446)"/>
<path d="M66.0875 40.325C64.7842 33.8562 58.9767 29 52 29C46.4608 29 41.65 32.075 39.2542 36.575C33.485 37.175 29 41.9563 29 47.75C29 53.9562 34.1558 59 40.5 59H65.4167C70.7067 59 75 54.8 75 49.625C75 44.675 71.0708 40.6625 66.0875 40.325Z" fill="#FFF4EF"/>
<defs>
<linearGradient id="paint0_linear_213_446" x1="0" y1="0" x2="81.5" y2="56" gradientUnits="userSpaceOnUse">
<stop stop-color="#BC244A"/>
<stop offset="1" stop-color="#F68F62"/>
</linearGradient>
</defs>
</svg>
